<?xml version="1.0" standalone="no"?>
<!DOCTYPE svg PUBLIC "-//W3C//DTD SVG 20010904//EN"
 "http://www.w3.org/TR/2001/REC-SVG-20010904/DTD/svg10.dtd">
<svg version="1.0" xmlns="http://www.w3.org/2000/svg"
 width="357.000000pt" height="357.000000pt" viewBox="0 0 357.000000 357.000000"
 preserveAspectRatio="xMidYMid meet">
<metadata>
Created by potrace 1.11, written by Peter Selinger 2001-2013
</metadata>
<g transform="translate(0.000000,357.000000) scale(0.100000,-0.100000)"
fill="#000000" stroke="none">
<path d="M2430 2844 c-236 -52 -810 -148 -987 -165 l-122 -12 -26 -61 c-122
-283 -420 -706 -696 -991 l-128 -131 197 -28 c108 -15 237 -36 286 -47 87 -18
89 -18 115 0 51 36 166 89 229 106 119 30 277 29 286 -4 3 -9 8 -59 12 -111 4
-52 8 -102 10 -110 1 -8 3 -33 3 -55 l1 -41 273 -136 c149 -75 298 -154 330
-175 l57 -38 153 150 c174 172 197 193 327 296 206 163 422 301 649 413 70 35
134 65 141 68 8 2 -125 190 -345 484 -429 575 -459 611 -254 313 59 -85 137
-199 175 -254 38 -55 132 -192 209 -304 77 -112 139 -206 139 -210 -2 -6 9 -1
-184 -94 -361 -172 -664 -377 -916 -619 -100 -97 -114 -107 -114 -88 0 34
-325 717 -409 858 -17 29 -31 55 -31 57 0 20 -248 423 -358 582 l-70 101 47 7
c127 19 596 116 781 161 125 31 300 83 300 89 0 6 -2 6 -80 -11z"/>
<path d="M338 1551 c-152 -86 -279 -158 -281 -161 -3 -3 4 -5 16 -6 62 -1 299
-20 452 -35 155 -16 191 -20 325 -39 69 -10 126 -17 128 -15 4 3 -219 61 -313
80 -120 25 -263 44 -327 45 -32 0 -58 4 -58 8 0 5 21 24 48 42 26 19 91 71
146 115 130 106 152 124 146 124 -3 -1 -130 -71 -282 -158z"/>
</g>
</svg>
